<mxfile host="app.diagrams.net" modified="2023-06-01T00:43:57.166Z" agent="Mozilla/5.0 (Windows NT 10.0; Win64; x64) AppleWebKit/537.36 (KHTML, like Gecko) Chrome/113.0.0.0 Safari/537.36" etag="l_RApybUb83WASDOcYHt" version="21.3.5" type="device">
  <diagram name="페이지-1" id="507GK70QPbaVEYWgQluT">
    <mxGraphModel dx="1195" dy="657" grid="1" gridSize="10" guides="1" tooltips="1" connect="1" arrows="1" fold="1" page="1" pageScale="1" pageWidth="4681" pageHeight="3300" math="0" shadow="0">
      <root>
        <mxCell id="0" />
        <mxCell id="1" parent="0" />
        <mxCell id="0Qfg8fOrgCddh-1_ZkCX-4" style="rounded=0;orthogonalLoop=1;jettySize=auto;html=1;entryX=0;entryY=0.5;entryDx=0;entryDy=0;" edge="1" parent="1" source="0Qfg8fOrgCddh-1_ZkCX-1" target="0Qfg8fOrgCddh-1_ZkCX-3">
          <mxGeometry relative="1" as="geometry" />
        </mxCell>
        <mxCell id="0Qfg8fOrgCddh-1_ZkCX-1" value="유저" style="shape=umlActor;verticalLabelPosition=bottom;verticalAlign=top;html=1;outlineConnect=0;" vertex="1" parent="1">
          <mxGeometry x="230" y="210" width="100" height="130" as="geometry" />
        </mxCell>
        <mxCell id="0Qfg8fOrgCddh-1_ZkCX-9" style="rounded=0;orthogonalLoop=1;jettySize=auto;html=1;entryX=0.5;entryY=0;entryDx=0;entryDy=0;" edge="1" parent="1" source="0Qfg8fOrgCddh-1_ZkCX-3" target="0Qfg8fOrgCddh-1_ZkCX-7">
          <mxGeometry relative="1" as="geometry" />
        </mxCell>
        <mxCell id="0Qfg8fOrgCddh-1_ZkCX-10" style="rounded=0;orthogonalLoop=1;jettySize=auto;html=1;entryX=0.5;entryY=0;entryDx=0;entryDy=0;exitX=1;exitY=1;exitDx=0;exitDy=0;" edge="1" parent="1" source="0Qfg8fOrgCddh-1_ZkCX-3" target="0Qfg8fOrgCddh-1_ZkCX-6">
          <mxGeometry relative="1" as="geometry">
            <mxPoint x="550" y="300" as="sourcePoint" />
          </mxGeometry>
        </mxCell>
        <mxCell id="0Qfg8fOrgCddh-1_ZkCX-11" style="rounded=0;orthogonalLoop=1;jettySize=auto;html=1;entryX=0.5;entryY=0;entryDx=0;entryDy=0;" edge="1" parent="1" source="0Qfg8fOrgCddh-1_ZkCX-3" target="0Qfg8fOrgCddh-1_ZkCX-8">
          <mxGeometry relative="1" as="geometry" />
        </mxCell>
        <mxCell id="0Qfg8fOrgCddh-1_ZkCX-26" style="edgeStyle=none;shape=connector;rounded=0;orthogonalLoop=1;jettySize=auto;html=1;entryX=0;entryY=0.5;entryDx=0;entryDy=0;labelBackgroundColor=default;strokeColor=default;fontFamily=Helvetica;fontSize=11;fontColor=default;endArrow=classic;" edge="1" parent="1" source="0Qfg8fOrgCddh-1_ZkCX-3" target="0Qfg8fOrgCddh-1_ZkCX-25">
          <mxGeometry relative="1" as="geometry" />
        </mxCell>
        <mxCell id="0Qfg8fOrgCddh-1_ZkCX-3" value="로그인하기" style="ellipse;whiteSpace=wrap;html=1;" vertex="1" parent="1">
          <mxGeometry x="470" y="210" width="160" height="65" as="geometry" />
        </mxCell>
        <mxCell id="0Qfg8fOrgCddh-1_ZkCX-14" style="edgeStyle=none;shape=connector;rounded=0;orthogonalLoop=1;jettySize=auto;html=1;entryX=0.5;entryY=0;entryDx=0;entryDy=0;labelBackgroundColor=default;strokeColor=default;fontFamily=Helvetica;fontSize=11;fontColor=default;endArrow=classic;exitX=0.5;exitY=1;exitDx=0;exitDy=0;" edge="1" parent="1" source="0Qfg8fOrgCddh-1_ZkCX-6" target="0Qfg8fOrgCddh-1_ZkCX-8">
          <mxGeometry relative="1" as="geometry" />
        </mxCell>
        <mxCell id="0Qfg8fOrgCddh-1_ZkCX-28" style="edgeStyle=orthogonalEdgeStyle;shape=connector;rounded=0;orthogonalLoop=1;jettySize=auto;html=1;entryX=0;entryY=0.5;entryDx=0;entryDy=0;labelBackgroundColor=default;strokeColor=default;fontFamily=Helvetica;fontSize=11;fontColor=default;endArrow=classic;" edge="1" parent="1" source="0Qfg8fOrgCddh-1_ZkCX-6" target="0Qfg8fOrgCddh-1_ZkCX-23">
          <mxGeometry relative="1" as="geometry">
            <Array as="points">
              <mxPoint x="970" y="370" />
            </Array>
          </mxGeometry>
        </mxCell>
        <mxCell id="0Qfg8fOrgCddh-1_ZkCX-6" value="아이디찾기" style="ellipse;whiteSpace=wrap;html=1;" vertex="1" parent="1">
          <mxGeometry x="680" y="330" width="160" height="65" as="geometry" />
        </mxCell>
        <mxCell id="0Qfg8fOrgCddh-1_ZkCX-21" style="edgeStyle=none;shape=connector;rounded=0;orthogonalLoop=1;jettySize=auto;html=1;entryX=0.553;entryY=0.014;entryDx=0;entryDy=0;entryPerimeter=0;labelBackgroundColor=default;strokeColor=default;fontFamily=Helvetica;fontSize=11;fontColor=default;endArrow=classic;" edge="1" parent="1" source="0Qfg8fOrgCddh-1_ZkCX-7" target="0Qfg8fOrgCddh-1_ZkCX-15">
          <mxGeometry relative="1" as="geometry" />
        </mxCell>
        <mxCell id="0Qfg8fOrgCddh-1_ZkCX-7" value="회원가입하기" style="ellipse;whiteSpace=wrap;html=1;" vertex="1" parent="1">
          <mxGeometry x="360" y="330" width="160" height="65" as="geometry" />
        </mxCell>
        <mxCell id="0Qfg8fOrgCddh-1_ZkCX-29" style="edgeStyle=orthogonalEdgeStyle;shape=connector;rounded=0;orthogonalLoop=1;jettySize=auto;html=1;entryX=0.5;entryY=1;entryDx=0;entryDy=0;labelBackgroundColor=default;strokeColor=default;fontFamily=Helvetica;fontSize=11;fontColor=default;endArrow=classic;" edge="1" parent="1" source="0Qfg8fOrgCddh-1_ZkCX-8" target="0Qfg8fOrgCddh-1_ZkCX-23">
          <mxGeometry relative="1" as="geometry" />
        </mxCell>
        <mxCell id="0Qfg8fOrgCddh-1_ZkCX-8" value="비밀번호찾기" style="ellipse;whiteSpace=wrap;html=1;" vertex="1" parent="1">
          <mxGeometry x="470" y="510" width="160" height="65" as="geometry" />
        </mxCell>
        <mxCell id="0Qfg8fOrgCddh-1_ZkCX-22" style="edgeStyle=none;shape=connector;rounded=0;orthogonalLoop=1;jettySize=auto;html=1;entryX=-0.013;entryY=0.388;entryDx=0;entryDy=0;entryPerimeter=0;labelBackgroundColor=default;strokeColor=default;fontFamily=Helvetica;fontSize=11;fontColor=default;endArrow=classic;" edge="1" parent="1" source="0Qfg8fOrgCddh-1_ZkCX-15" target="0Qfg8fOrgCddh-1_ZkCX-20">
          <mxGeometry relative="1" as="geometry" />
        </mxCell>
        <mxCell id="0Qfg8fOrgCddh-1_ZkCX-15" value="유효성검사하기" style="ellipse;whiteSpace=wrap;html=1;fontFamily=Helvetica;fontSize=11;fontColor=default;" vertex="1" parent="1">
          <mxGeometry x="360" y="620" width="150" height="70" as="geometry" />
        </mxCell>
        <mxCell id="0Qfg8fOrgCddh-1_ZkCX-18" value="&lt;h1&gt;유효성검사&lt;/h1&gt;&lt;p&gt;이메일 중복검사&lt;/p&gt;&lt;p&gt;이메일 형식검사&lt;/p&gt;&lt;p&gt;비밀번호 적합성 검사&lt;/p&gt;" style="text;html=1;strokeColor=none;fillColor=none;spacing=5;spacingTop=-20;whiteSpace=wrap;overflow=hidden;rounded=0;fontSize=11;fontFamily=Helvetica;fontColor=default;" vertex="1" parent="1">
          <mxGeometry x="360" y="710" width="220" height="160" as="geometry" />
        </mxCell>
        <mxCell id="0Qfg8fOrgCddh-1_ZkCX-24" style="edgeStyle=orthogonalEdgeStyle;shape=connector;rounded=0;orthogonalLoop=1;jettySize=auto;html=1;entryX=0;entryY=0.5;entryDx=0;entryDy=0;labelBackgroundColor=default;strokeColor=default;fontFamily=Helvetica;fontSize=11;fontColor=default;endArrow=classic;" edge="1" parent="1" source="0Qfg8fOrgCddh-1_ZkCX-20" target="0Qfg8fOrgCddh-1_ZkCX-23">
          <mxGeometry relative="1" as="geometry" />
        </mxCell>
        <mxCell id="0Qfg8fOrgCddh-1_ZkCX-20" value="회원정보 검사" style="ellipse;whiteSpace=wrap;html=1;fontFamily=Helvetica;fontSize=11;fontColor=default;" vertex="1" parent="1">
          <mxGeometry x="650" y="620" width="150" height="80" as="geometry" />
        </mxCell>
        <mxCell id="0Qfg8fOrgCddh-1_ZkCX-23" value="회원정보 Table" style="shape=internalStorage;whiteSpace=wrap;html=1;backgroundOutline=1;fontFamily=Helvetica;fontSize=11;fontColor=default;" vertex="1" parent="1">
          <mxGeometry x="990" y="350" width="190" height="100" as="geometry" />
        </mxCell>
        <mxCell id="0Qfg8fOrgCddh-1_ZkCX-27" style="edgeStyle=orthogonalEdgeStyle;shape=connector;rounded=0;orthogonalLoop=1;jettySize=auto;html=1;entryX=0.5;entryY=0;entryDx=0;entryDy=0;labelBackgroundColor=default;strokeColor=default;fontFamily=Helvetica;fontSize=11;fontColor=default;endArrow=classic;" edge="1" parent="1" source="0Qfg8fOrgCddh-1_ZkCX-25" target="0Qfg8fOrgCddh-1_ZkCX-23">
          <mxGeometry relative="1" as="geometry">
            <Array as="points">
              <mxPoint x="1085" y="230" />
            </Array>
          </mxGeometry>
        </mxCell>
        <mxCell id="0Qfg8fOrgCddh-1_ZkCX-25" value="회원정보 조회&lt;br&gt;로그인 승인하기" style="ellipse;whiteSpace=wrap;html=1;" vertex="1" parent="1">
          <mxGeometry x="820" y="200" width="160" height="65" as="geometry" />
        </mxCell>
      </root>
    </mxGraphModel>
  </diagram>
</mxfile>
